<svg width="157" height="70" viewBox="0 0 157 70" fill="none" xmlns="http://www.w3.org/2000/svg">
<path d="M133.216 48.2546C132.434 45.8558 137.362 40.3543 143.072 40.3282C144.48 44.8129 134.468 52.1135 133.216 48.2546ZM25.6104 22.8589C25.4018 22.911 25.1672 22.9632 24.9586 23.0153C24.6978 22.4678 24.411 21.8942 24.1242 21.3466C24.75 21.0337 25.3758 20.7469 25.9494 20.5123C25.8451 21.2684 25.7408 22.0767 25.6104 22.8589ZM36.9264 25.1273C37.6043 25.9356 36.6656 27.2393 34.8926 28.7515C32.8067 28.3344 30.3819 28.4647 27.8527 28.934C27.8006 28.8558 27.7745 28.7515 27.7224 28.6733C27.8527 27.5521 28.0092 26.431 28.1656 25.2837C32.1027 24.5537 36.092 24.0843 36.9264 25.1273ZM37.9693 34.592C38.0997 35.1396 38.0997 35.7132 37.9954 36.339C35.9616 35.3221 33.9801 34.5138 32.4939 34.0184C33.615 33.158 34.5276 32.5583 35.5184 31.7761C36.7439 32.2975 37.6304 33.2101 37.9693 34.592ZM42.0368 43.8482C41.9846 44.9954 39.3512 45.4126 35.7009 44.839C37.0567 43.4571 38.23 42.0491 39.1166 40.6411C40.8635 41.8666 42.0889 43.092 42.0368 43.8482ZM32.3374 66.1933C31.0077 66.5061 28.4003 60.1181 27.3313 51.2009C28.7914 50.3405 30.2254 49.4018 31.5552 48.411C33.4325 58.1104 33.9279 65.8543 32.3374 66.1933ZM8.84507 51.8788C7.67176 50.888 7.15029 48.9064 7.25458 46.3773C10.9831 45.569 15.3374 43.6135 17.7101 42.362C18.0491 42.1794 18.8052 41.8144 19.8481 41.2669C20.2393 41.5798 20.6564 41.8926 21.0736 42.1795C21.9862 42.8313 22.977 43.431 24.0199 43.9785C24.046 45.908 24.1503 47.8114 24.3067 49.6626C18.2837 52.8696 11.9218 54.408 8.84507 51.8788ZM8.76685 39.3635C10.5138 38.4248 12.5215 37.434 14.5291 36.4693C15.2853 37.2776 16.0675 38.0337 16.8758 38.7899C16.1196 39.5982 15.1549 40.3282 13.9816 40.9801C11.9739 41.8666 9.62728 42.8052 7.64569 43.431C7.88035 42.1273 8.27145 40.7715 8.76685 39.3635ZM12.5215 34.1748C11.8957 34.4617 11.2699 34.7745 10.6442 35.0874C10.9831 34.4356 11.3221 33.8098 11.7132 33.158C11.9739 33.523 12.2346 33.862 12.5215 34.1748ZM7.74998 16.7316C9.52299 15.3758 13.8251 18.5567 16.615 23.1457C15.3113 24.2147 14.1119 25.388 13.0169 26.6135C12.4172 26.8482 11.8435 27.0828 11.296 27.3436C8.21931 22.4156 6.28986 17.8267 7.74998 16.7316ZM11.9218 4.99846C12.365 4.78987 16.3282 11.569 20.6043 20.2515C20.3175 20.434 19.3788 21.0598 19.092 21.2423C12.8604 8.30981 11.4524 5.23312 11.9218 4.99846ZM22.273 23.6932C21.7515 23.8236 21.1258 23.9801 20.4218 24.1886C20.3435 24.0322 20.2653 23.8758 20.2132 23.7193C20.7086 23.3543 21.2561 22.9893 21.7776 22.6503C21.934 22.9893 22.1166 23.3282 22.273 23.6932ZM24.2546 35.661C23.1856 36.2607 22.1948 36.8083 21.3083 37.2776C21.8819 35.9218 22.1948 34.5138 22.2991 33.0797C23.0291 32.819 23.7853 32.5844 24.5153 32.3758C24.411 33.4709 24.3328 34.566 24.2546 35.661ZM29.4693 32.5844C29.3129 32.1672 29.1304 31.7761 28.9739 31.385C29.9126 31.2546 30.8251 31.1503 31.6856 31.1503C30.9555 31.6457 30.2254 32.115 29.4693 32.5844ZM33.0675 43.5353C32.4156 41.1365 31.6856 38.7638 30.9034 36.4954C32.7285 37.0429 34.8665 38.0337 36.8221 39.181C35.9356 40.589 34.658 42.0752 33.0675 43.5353ZM24.046 40.589C23.6027 40.3282 23.1856 40.0675 22.7684 39.7807C23.1856 39.546 23.6288 39.3113 24.0981 39.0767C24.0721 39.5721 24.046 40.0675 24.046 40.589ZM26.9662 37.434C27.3052 37.2515 27.6181 37.0429 27.957 36.8604C28.8435 39.1549 29.6258 41.3972 30.2776 43.4831C29.1564 43.092 27.9831 42.6227 26.8359 42.0752C26.8359 40.5629 26.888 38.9985 26.9662 37.434ZM18.3359 34.6963C18.6227 34.566 18.9356 34.4356 19.2224 34.3052C19.0659 35.0092 18.8313 35.7132 18.5184 36.3911C18.1273 36 17.7101 35.5828 17.319 35.1656C17.658 35.0092 17.9969 34.8267 18.3359 34.6963ZM19.4049 31.2546C18.4662 31.6196 17.0061 32.1933 15.3374 32.9233C14.6856 32.1411 14.0598 31.3589 13.4862 30.5245C13.9034 29.9509 14.3466 29.3512 14.8159 28.8037C15.885 28.3865 17.1626 27.9432 18.6748 27.5261C19.0659 28.7515 19.3267 30.0031 19.4049 31.2546ZM26.9402 46.8988C26.9141 46.3773 26.888 45.8558 26.8619 45.3344C27.7745 45.6994 28.6871 46.0383 29.6258 46.3512C28.7914 46.977 27.931 47.5506 27.0184 48.0982C26.9923 47.7071 26.9662 47.316 26.9402 46.8988ZM24.8282 29.2469C24.8282 29.3512 24.8021 29.4816 24.8021 29.5859C23.9417 29.7945 23.0813 30.0552 22.2469 30.316C22.1166 29.1426 21.8558 27.9693 21.4908 26.796C22.0644 26.6396 22.7684 26.4831 23.5245 26.3006C23.9417 27.2914 24.385 28.2561 24.8282 29.2469ZM4.51685 44.135C3.83894 44.1871 3.36961 44.0828 3.29139 43.7178C3.16102 43.1963 3.83894 42.4663 5.01225 41.6058C4.80366 42.4923 4.64722 43.3267 4.51685 44.135ZM156.813 49.1933C155.327 46.2469 151.129 53.365 147.166 43.6917C145.627 39.9632 145.966 30.6549 146.436 26.3528C146.801 22.885 143.567 22.911 143.124 26.0659C142.785 28.4386 142.446 32.8972 142.837 37.5123C131.391 38.1641 129.957 48.9847 126.046 49.0368C122.813 49.089 122.474 37.3558 116.972 37.4862C113.687 37.5644 110.975 41.1626 109.75 43.7439C109.906 42.4141 110.037 41.0322 109.88 39.4678C109.724 38.138 109.281 37.6426 108.368 37.6426C107.012 37.6426 105.735 40.3804 105.5 40.8497C104.196 43.3267 102.475 48.7239 98.6166 48.9064C94.4969 49.115 94.0537 40.5629 93.7408 38.8681C93.5061 37.6426 92.8804 37.2255 92.046 37.2515C90.9509 37.2776 90.3252 38.4248 89.8819 39.9371C89.3083 41.9709 87.0138 49.3758 83.1549 49.2193C77.4969 49.0107 80.0261 30.4202 72.4387 30.681C69.6488 30.7853 67.8497 33.7837 67.25 35.9478C66.3896 30.9939 63.2607 30.7331 62.3742 30.7331C59.9755 30.707 58.2024 32.819 56.9248 36.365C57.3159 33.2362 55.0475 15.6365 37.9693 15.2715C35.3359 15.2193 32.5981 15.5061 29.73 16.2623C30.3037 13.2638 30.9555 10.2653 31.6856 7.29294C32.4156 4.24232 32.4156 3.25152 31.5813 2.88649C30.0429 2.18251 29.1304 3.72085 28.6089 6.22392C28.0613 8.77913 27.2791 12.7162 26.4969 17.3313C25.3236 17.8006 24.1503 18.3221 22.9509 18.9478C19.5613 12.2209 16.0935 5.80674 13.6165 2.59968C12.365 1.00919 11.2178 0.148762 9.86195 0.85275C7.15029 2.26073 10.8006 10.865 13.6165 15.6886C10.8527 13.5767 7.95857 12.7423 5.87268 14.0982C2.76992 16.1058 4.54293 22.3374 8.61041 28.8298C7.46317 29.638 6.78526 30.4724 6.9417 31.3067C7.12422 32.2715 7.88035 32.6626 8.61041 32.7669C7.72391 34.3313 6.96777 35.9479 6.34201 37.5383C2.6917 39.8328 -0.0460318 42.388 0.631882 44.6825C1.07513 46.1948 2.45704 46.7684 4.28219 46.7684C4.1779 49.819 4.80366 52.296 6.18557 53.6258C10.0966 57.3804 17.5797 56.1549 24.6196 52.6871C25.8451 62.5169 28.8957 69.8696 32.6242 69.5568C37.0046 69.1657 36.6396 58.7362 34.0583 47.4724C39.8988 48.5153 44.9049 47.6288 45.1135 44.0046C45.2439 41.6319 43.158 39.4939 40.4985 37.773C41.1503 35.7914 41.1242 33.9141 40.1595 32.2975C39.5337 31.2285 38.6994 30.4202 37.7346 29.8466C39.7423 27.865 40.9156 25.9356 40.4463 24.319C39.4816 21.0337 33.6932 21.3727 28.661 22.2853C28.8175 21.2945 28.9739 20.3037 29.1564 19.3129C32.8589 18.0613 35.3359 18.0613 38.0475 18.1917C55.2561 19.1043 54.3957 37.3558 54.3957 49.5061C54.3957 52.8957 56.977 53.3129 57.3159 49.3236C57.5245 46.7163 59.0629 33.6273 62.3221 34.0184C65.6595 34.4356 65.1902 48.0721 65.138 50.0798C65.0598 52.7132 67.8758 53.0261 67.9801 50.0015C68.0061 48.75 68.7623 34.4356 72.4387 34.227C76.115 34.0184 74.1856 52.2699 82.7117 52.296C88.2132 52.296 90.7423 46.8466 91.2377 44.839C92.2546 49.9494 95.2791 52.1396 98.2776 52.2699C102.189 52.4003 105.5 47.9678 106.465 45.569C106.517 47.6288 106.282 52.1656 108.186 52.296C109.62 52.4003 110.558 49.2454 111.862 46.5077C113.166 43.7699 114.887 40.954 116.503 40.9801C119.632 41.0061 119.606 52.8175 125.968 52.1917C128.184 51.9831 129.827 50.4187 130.452 49.7408C132.095 55.0077 141.742 50.9663 144.506 45.9341C145.836 49.3236 148 51.8528 151.494 52.2178C154.779 52.5046 157.595 50.7316 156.813 49.1933Z" fill="#2F4858"/>
<path d="M93.5061 31.2025C94.6012 31.2285 95.4356 30.5246 95.4617 29.5859C95.4877 28.6733 94.7055 27.7868 93.6365 27.7608C92.5675 27.7347 91.7071 28.6212 91.681 29.5598C91.6549 30.4985 92.4371 31.1764 93.5061 31.2025Z" fill="#2F4858"/>
</svg>
